<svg xmlns="http://www.w3.org/2000/svg" xmlns:xlink="http://www.w3.org/1999/xlink" width="500" zoomAndPan="magnify" viewBox="0 0 375 374.999991" height="500" preserveAspectRatio="xMidYMid meet" version="1.0"><defs><g/><clipPath id="634ad20e6a"><path d="M 6.125 151 L 26 151 L 26 167 L 6.125 167 Z M 6.125 151 " clip-rule="nonzero"/></clipPath><clipPath id="8cf7868a38"><path d="M 6.125 193 L 27 193 L 27 208 L 6.125 208 Z M 6.125 193 " clip-rule="nonzero"/></clipPath><clipPath id="1a8ec278a4"><path d="M 26 141 L 110.375 141 L 110.375 233.394531 L 26 233.394531 Z M 26 141 " clip-rule="nonzero"/></clipPath><clipPath id="fdd12f277e"><path d="M 18 134.394531 L 104 134.394531 L 104 228 L 18 228 Z M 18 134.394531 " clip-rule="nonzero"/></clipPath></defs><path stroke-linecap="butt" transform="matrix(0, 0.748538, -0.75, 0, 145.234682, 156.687998)" fill="none" stroke-linejoin="miter" d="M -0.000664911 3.00041 L 72.15562 3.00041 " stroke="#ffffff" stroke-width="6" stroke-opacity="1" stroke-miterlimit="4"/><path fill="#8c52ff" d="M 28.203125 193.40625 C 26.535156 195.082031 25.503906 197.398438 25.503906 199.957031 C 25.503906 202.515625 26.535156 204.828125 28.203125 206.503906 C 29.871094 208.179688 32.175781 209.21875 34.71875 209.21875 C 37.261719 209.21875 39.566406 208.179688 41.234375 206.503906 C 42.902344 204.828125 43.933594 202.515625 43.933594 199.957031 C 43.933594 197.398438 42.902344 195.082031 41.234375 193.40625 C 39.566406 191.730469 37.261719 190.695312 34.71875 190.695312 C 32.175781 190.695312 29.871094 191.730469 28.203125 193.40625 Z M 28.203125 193.40625 " fill-opacity="1" fill-rule="evenodd"/><path fill="#8c52ff" d="M 24.53125 159.34375 C 24.53125 161.898438 25.5625 164.214844 27.230469 165.890625 C 28.894531 167.566406 31.199219 168.605469 33.746094 168.605469 C 36.289062 168.605469 38.59375 167.566406 40.261719 165.890625 C 41.929688 164.214844 42.960938 161.898438 42.960938 159.34375 C 42.960938 156.785156 41.929688 154.46875 40.261719 152.792969 C 38.59375 151.117188 36.289062 150.082031 33.746094 150.082031 C 31.199219 150.082031 28.894531 151.117188 27.230469 152.792969 C 25.5625 154.46875 24.53125 156.785156 24.53125 159.34375 Z M 24.53125 159.34375 " fill-opacity="1" fill-rule="evenodd"/><g clip-path="url(#634ad20e6a)"><path fill="#8c52ff" d="M 6.125 158.851562 C 6.125 162.867188 9.398438 166.15625 13.394531 166.15625 L 24.707031 166.15625 C 23.242188 164.203125 22.445312 161.820312 22.445312 159.34375 C 22.445312 156.433594 23.546875 153.65625 25.527344 151.550781 L 13.394531 151.550781 C 9.398438 151.550781 6.125 154.839844 6.125 158.851562 Z M 6.125 158.851562 " fill-opacity="1" fill-rule="evenodd"/></g><g clip-path="url(#8cf7868a38)"><path fill="#8c52ff" d="M 13.394531 193.140625 C 9.398438 193.140625 6.125 196.429688 6.125 200.445312 C 6.125 204.457031 9.398438 207.75 13.394531 207.75 L 26.5 207.75 C 24.519531 205.640625 23.417969 202.867188 23.417969 199.957031 C 23.417969 197.476562 24.21875 195.09375 25.679688 193.140625 Z M 13.394531 193.140625 " fill-opacity="1" fill-rule="evenodd"/></g><g clip-path="url(#1a8ec278a4)"><path fill="#8c52ff" d="M 102.753906 226.503906 C 100.679688 228.589844 97.882812 229.765625 94.949219 229.765625 L 27.628906 229.765625 C 27.394531 229.765625 27.160156 229.757812 26.929688 229.742188 C 27.40625 230.378906 27.96875 230.953125 28.59375 231.441406 C 30.117188 232.636719 32.027344 233.351562 34.089844 233.351562 L 101.410156 233.351562 C 103.875 233.351562 106.117188 232.339844 107.742188 230.707031 C 109.367188 229.074219 110.375 226.820312 110.375 224.34375 L 110.375 149.105469 C 110.375 146.816406 109.507812 144.71875 108.089844 143.121094 C 107.429688 142.378906 106.652344 141.746094 105.785156 141.253906 C 105.925781 141.960938 105.996094 142.6875 105.996094 143.421875 L 105.996094 218.660156 C 105.996094 221.609375 104.828125 224.417969 102.753906 226.503906 Z M 102.753906 226.503906 " fill-opacity="1" fill-rule="evenodd"/></g><g clip-path="url(#fdd12f277e)"><path fill="#ffffff" d="M 18.664062 209.84375 L 18.664062 218.660156 C 18.664062 221.136719 19.671875 223.390625 21.292969 225.023438 C 22.917969 226.65625 25.160156 227.667969 27.628906 227.667969 L 94.949219 227.667969 C 97.414062 227.667969 99.65625 226.65625 101.28125 225.023438 C 102.902344 223.390625 103.914062 221.136719 103.914062 218.660156 L 103.914062 143.421875 C 103.914062 140.945312 102.902344 138.691406 101.28125 137.058594 C 99.65625 135.425781 97.414062 134.414062 94.949219 134.414062 L 27.628906 134.414062 C 25.160156 134.414062 22.917969 135.425781 21.292969 137.058594 C 19.671875 138.691406 18.664062 140.945312 18.664062 143.421875 L 18.664062 149.453125 L 26.78125 149.453125 C 27.203125 149.453125 27.621094 149.484375 28.035156 149.539062 C 29.75 148.527344 31.714844 147.984375 33.746094 147.984375 C 36.75 147.984375 39.609375 149.175781 41.734375 151.3125 C 43.859375 153.449219 45.046875 156.320312 45.046875 159.34375 C 45.046875 162.363281 43.859375 165.238281 41.734375 167.371094 C 39.609375 169.507812 36.75 170.699219 33.746094 170.699219 C 31.183594 170.699219 28.722656 169.832031 26.738281 168.253906 L 18.664062 168.253906 L 18.664062 191.046875 L 26.78125 191.046875 C 27.074219 191.046875 27.367188 191.058594 27.660156 191.085938 C 29.65625 189.480469 32.132812 188.597656 34.71875 188.597656 C 37.722656 188.597656 40.585938 189.789062 42.707031 191.925781 C 44.832031 194.0625 46.019531 196.9375 46.019531 199.957031 C 46.019531 202.976562 44.832031 205.851562 42.707031 207.988281 C 40.585938 210.121094 37.722656 211.3125 34.71875 211.3125 C 32.597656 211.3125 30.550781 210.71875 28.78125 209.621094 C 28.125 209.765625 27.453125 209.84375 26.78125 209.84375 Z M 95.039062 210.675781 L 53.03125 210.675781 C 52.246094 210.675781 51.605469 210.035156 51.605469 209.242188 C 51.605469 208.449219 52.246094 207.808594 53.03125 207.808594 L 95.039062 207.808594 C 95.828125 207.808594 96.464844 208.449219 96.464844 209.242188 C 96.464844 210.035156 95.828125 210.675781 95.039062 210.675781 Z M 95.039062 196.601562 L 53.03125 196.601562 C 52.246094 196.601562 51.605469 195.960938 51.605469 195.167969 C 51.605469 194.378906 52.246094 193.738281 53.03125 193.738281 L 95.039062 193.738281 C 95.828125 193.738281 96.464844 194.378906 96.464844 195.167969 C 96.464844 195.960938 95.828125 196.601562 95.039062 196.601562 Z M 95.039062 182.527344 L 53.03125 182.527344 C 52.246094 182.527344 51.605469 181.886719 51.605469 181.097656 C 51.605469 180.304688 52.246094 179.664062 53.03125 179.664062 L 95.039062 179.664062 C 95.828125 179.664062 96.464844 180.304688 96.464844 181.097656 C 96.464844 181.886719 95.828125 182.527344 95.039062 182.527344 Z M 95.039062 168.457031 L 53.03125 168.457031 C 52.246094 168.457031 51.605469 167.8125 51.605469 167.023438 C 51.605469 166.230469 52.246094 165.589844 53.03125 165.589844 L 95.039062 165.589844 C 95.828125 165.589844 96.464844 166.230469 96.464844 167.023438 C 96.464844 167.8125 95.828125 168.457031 95.039062 168.457031 Z M 95.039062 154.382812 L 53.03125 154.382812 C 52.246094 154.382812 51.605469 153.742188 51.605469 152.949219 C 51.605469 152.160156 52.246094 151.519531 53.03125 151.519531 L 95.039062 151.519531 C 95.828125 151.519531 96.464844 152.160156 96.464844 152.949219 C 96.464844 153.742188 95.828125 154.382812 95.039062 154.382812 Z M 95.039062 154.382812 " fill-opacity="1" fill-rule="evenodd"/></g><g fill="#ffffff" fill-opacity="1"><g transform="translate(171.128187, 197.541036)"><g><path d="M 0.40625 -28.5 L 14.25 -28.5 L 14.25 -24.4375 L 9.5625 -24.4375 L 9.5625 0 L 5.09375 0 L 5.09375 -24.4375 L 0.40625 -24.4375 Z M 0.40625 -28.5 "/></g></g></g><g fill="#ffffff" fill-opacity="1"><g transform="translate(185.783329, 197.541036)"><g><path d="M 16.125 0 L 11.609375 0 L 10.828125 -5.171875 L 5.328125 -5.171875 L 4.5625 0 L 0.453125 0 L 5.015625 -28.5 L 11.5625 -28.5 Z M 5.90625 -9.046875 L 10.21875 -9.046875 L 8.0625 -23.453125 Z M 5.90625 -9.046875 "/></g></g></g><g fill="#ffffff" fill-opacity="1"><g transform="translate(202.351787, 197.541036)"><g><path d="M 1.0625 -21.65625 C 1.0625 -23.96875 1.609375 -25.738281 2.703125 -26.96875 C 3.804688 -28.207031 5.457031 -28.828125 7.65625 -28.828125 C 9.851562 -28.828125 11.5 -28.207031 12.59375 -26.96875 C 13.695312 -25.738281 14.25 -23.96875 14.25 -21.65625 L 14.25 -20.5625 L 10.015625 -20.5625 L 10.015625 -21.953125 C 10.015625 -22.984375 9.816406 -23.707031 9.421875 -24.125 C 9.035156 -24.539062 8.488281 -24.75 7.78125 -24.75 C 7.070312 -24.75 6.519531 -24.539062 6.125 -24.125 C 5.726562 -23.707031 5.53125 -22.984375 5.53125 -21.953125 C 5.53125 -20.972656 5.75 -20.109375 6.1875 -19.359375 C 6.625 -18.609375 7.164062 -17.898438 7.8125 -17.234375 C 8.46875 -16.578125 9.164062 -15.914062 9.90625 -15.25 C 10.65625 -14.582031 11.351562 -13.851562 12 -13.0625 C 12.65625 -12.28125 13.203125 -11.382812 13.640625 -10.375 C 14.078125 -9.375 14.296875 -8.195312 14.296875 -6.84375 C 14.296875 -4.53125 13.726562 -2.753906 12.59375 -1.515625 C 11.46875 -0.285156 9.804688 0.328125 7.609375 0.328125 C 5.410156 0.328125 3.75 -0.285156 2.625 -1.515625 C 1.5 -2.753906 0.9375 -4.53125 0.9375 -6.84375 L 0.9375 -8.796875 L 5.171875 -8.796875 L 5.171875 -6.5625 C 5.171875 -5.53125 5.378906 -4.804688 5.796875 -4.390625 C 6.222656 -3.984375 6.789062 -3.78125 7.5 -3.78125 C 8.195312 -3.78125 8.753906 -3.984375 9.171875 -4.390625 C 9.597656 -4.804688 9.8125 -5.53125 9.8125 -6.5625 C 9.8125 -7.53125 9.59375 -8.390625 9.15625 -9.140625 C 8.726562 -9.890625 8.1875 -10.59375 7.53125 -11.25 C 6.882812 -11.914062 6.1875 -12.582031 5.4375 -13.25 C 4.6875 -13.914062 3.984375 -14.640625 3.328125 -15.421875 C 2.679688 -16.210938 2.140625 -17.109375 1.703125 -18.109375 C 1.273438 -19.117188 1.0625 -20.300781 1.0625 -21.65625 Z M 1.0625 -21.65625 "/></g></g></g><g fill="#ffffff" fill-opacity="1"><g transform="translate(217.576847, 197.541036)"><g><path d="M 7.5 -11.359375 L 6.109375 -8.75 L 6.109375 0 L 1.625 0 L 1.625 -28.5 L 6.109375 -28.5 L 6.109375 -16.078125 L 12.046875 -28.5 L 16.453125 -28.5 L 10.21875 -15.796875 L 16.453125 0 L 11.84375 0 Z M 7.5 -11.359375 "/></g></g></g><g fill="#000000" fill-opacity="1"><g transform="translate(234.445586, 197.541036)"><g/></g></g><g fill="#000000" fill-opacity="1"><g transform="translate(240.755436, 197.541036)"><g/></g></g><g fill="#8c52ff" fill-opacity="1"><g transform="translate(247.066283, 197.541036)"><g><path d="M 11.109375 -8.265625 L 14.171875 -28.5 L 20.40625 -28.5 L 20.40625 0 L 16.171875 0 L 16.171875 -20.4375 L 13.078125 0 L 8.84375 0 L 5.5 -20.15625 L 5.5 0 L 1.59375 0 L 1.59375 -28.5 L 7.8125 -28.5 Z M 11.109375 -8.265625 "/></g></g></g><g fill="#8c52ff" fill-opacity="1"><g transform="translate(269.089707, 197.541036)"><g><path d="M 16.125 0 L 11.609375 0 L 10.828125 -5.171875 L 5.328125 -5.171875 L 4.5625 0 L 0.453125 0 L 5.015625 -28.5 L 11.5625 -28.5 Z M 5.90625 -9.046875 L 10.21875 -9.046875 L 8.0625 -23.453125 Z M 5.90625 -9.046875 "/></g></g></g><g fill="#8c52ff" fill-opacity="1"><g transform="translate(285.658165, 197.541036)"><g><path d="M 5.625 -20.640625 L 5.625 0 L 1.59375 0 L 1.59375 -28.5 L 7.203125 -28.5 L 11.8125 -11.4375 L 11.8125 -28.5 L 15.796875 -28.5 L 15.796875 0 L 11.203125 0 Z M 5.625 -20.640625 "/></g></g></g><g fill="#8c52ff" fill-opacity="1"><g transform="translate(303.040789, 197.541036)"><g><path d="M 16.125 0 L 11.609375 0 L 10.828125 -5.171875 L 5.328125 -5.171875 L 4.5625 0 L 0.453125 0 L 5.015625 -28.5 L 11.5625 -28.5 Z M 5.90625 -9.046875 L 10.21875 -9.046875 L 8.0625 -23.453125 Z M 5.90625 -9.046875 "/></g></g></g><g fill="#8c52ff" fill-opacity="1"><g transform="translate(319.609248, 197.541036)"><g><path d="M 8.34375 -15.875 L 14.625 -15.875 L 14.625 -6.84375 C 14.625 -4.53125 14.054688 -2.753906 12.921875 -1.515625 C 11.796875 -0.285156 10.132812 0.328125 7.9375 0.328125 C 5.738281 0.328125 4.078125 -0.285156 2.953125 -1.515625 C 1.828125 -2.753906 1.265625 -4.53125 1.265625 -6.84375 L 1.265625 -21.65625 C 1.265625 -23.96875 1.828125 -25.738281 2.953125 -26.96875 C 4.078125 -28.207031 5.738281 -28.828125 7.9375 -28.828125 C 10.132812 -28.828125 11.796875 -28.207031 12.921875 -26.96875 C 14.054688 -25.738281 14.625 -23.96875 14.625 -21.65625 L 14.625 -18.890625 L 10.390625 -18.890625 L 10.390625 -21.953125 C 10.390625 -22.984375 10.175781 -23.707031 9.75 -24.125 C 9.332031 -24.539062 8.769531 -24.75 8.0625 -24.75 C 7.351562 -24.75 6.785156 -24.539062 6.359375 -24.125 C 5.941406 -23.707031 5.734375 -22.984375 5.734375 -21.953125 L 5.734375 -6.5625 C 5.734375 -5.53125 5.941406 -4.804688 6.359375 -4.390625 C 6.785156 -3.984375 7.351562 -3.78125 8.0625 -3.78125 C 8.769531 -3.78125 9.332031 -3.984375 9.75 -4.390625 C 10.175781 -4.804688 10.390625 -5.53125 10.390625 -6.5625 L 10.390625 -11.8125 L 8.34375 -11.8125 Z M 8.34375 -15.875 "/></g></g></g><g fill="#8c52ff" fill-opacity="1"><g transform="translate(335.485647, 197.541036)"><g><path d="M 6.109375 -16.484375 L 12.25 -16.484375 L 12.25 -12.421875 L 6.109375 -12.421875 L 6.109375 -4.078125 L 13.84375 -4.078125 L 13.84375 0 L 1.625 0 L 1.625 -28.5 L 13.84375 -28.5 L 13.84375 -24.4375 L 6.109375 -24.4375 Z M 6.109375 -16.484375 "/></g></g></g><g fill="#8c52ff" fill-opacity="1"><g transform="translate(350.466459, 197.541036)"><g><path d="M 11 0 C 10.9375 -0.1875 10.878906 -0.363281 10.828125 -0.53125 C 10.773438 -0.695312 10.726562 -0.898438 10.6875 -1.140625 C 10.644531 -1.378906 10.617188 -1.6875 10.609375 -2.0625 C 10.597656 -2.445312 10.59375 -2.925781 10.59375 -3.5 L 10.59375 -7.984375 C 10.59375 -9.304688 10.359375 -10.238281 9.890625 -10.78125 C 9.429688 -11.332031 8.6875 -11.609375 7.65625 -11.609375 L 6.109375 -11.609375 L 6.109375 0 L 1.625 0 L 1.625 -28.5 L 8.390625 -28.5 C 10.722656 -28.5 12.410156 -27.957031 13.453125 -26.875 C 14.503906 -25.789062 15.03125 -24.148438 15.03125 -21.953125 L 15.03125 -19.703125 C 15.03125 -16.773438 14.050781 -14.847656 12.09375 -13.921875 C 13.226562 -13.460938 14.003906 -12.707031 14.421875 -11.65625 C 14.847656 -10.613281 15.0625 -9.347656 15.0625 -7.859375 L 15.0625 -3.46875 C 15.0625 -2.757812 15.085938 -2.140625 15.140625 -1.609375 C 15.203125 -1.078125 15.335938 -0.539062 15.546875 0 Z M 6.109375 -24.4375 L 6.109375 -15.671875 L 7.859375 -15.671875 C 8.703125 -15.671875 9.359375 -15.890625 9.828125 -16.328125 C 10.304688 -16.765625 10.546875 -17.550781 10.546875 -18.6875 L 10.546875 -21.5 C 10.546875 -22.53125 10.363281 -23.273438 10 -23.734375 C 9.632812 -24.203125 9.054688 -24.4375 8.265625 -24.4375 Z M 6.109375 -24.4375 "/></g></g></g></svg>