<svg xmlns="http://www.w3.org/2000/svg" xmlns:xlink="http://www.w3.org/1999/xlink" width="793" zoomAndPan="magnify" viewBox="0 0 595.5 419.249985" height="559" preserveAspectRatio="xMidYMid meet" version="1.0"><defs><clipPath id="38002dade8"><path d="M 158.847656 137.664062 L 436.425781 137.664062 L 436.425781 253.425781 L 158.847656 253.425781 Z M 158.847656 137.664062 " clip-rule="nonzero"/></clipPath><clipPath id="eead73cbe7"><path d="M 234.769531 54.148438 L 360.507812 54.148438 L 360.507812 364.980469 L 234.769531 364.980469 Z M 234.769531 54.148438 " clip-rule="nonzero"/></clipPath><clipPath id="7d6cb8b2c5"><path d="M 102.09375 0 L 493.222656 0 L 493.222656 391.128906 L 102.09375 391.128906 Z M 102.09375 0 " clip-rule="nonzero"/></clipPath></defs><g clip-path="url(#38002dade8)"><path fill="#ffffff" d="M 158.847656 137.664062 L 436.425781 137.664062 L 436.425781 253.425781 L 158.847656 253.425781 Z M 158.847656 137.664062 " fill-opacity="1" fill-rule="nonzero"/></g><g clip-path="url(#eead73cbe7)"><path fill="#ffffff" d="M 234.769531 54.148438 L 360.507812 54.148438 L 360.507812 364.980469 L 234.769531 364.980469 Z M 234.769531 54.148438 " fill-opacity="1" fill-rule="nonzero"/></g><g clip-path="url(#7d6cb8b2c5)"><path fill="#653db4" d="M 297.660156 0 C 189.78125 0 102.09375 87.6875 102.09375 195.566406 C 102.09375 303.441406 189.78125 391.128906 297.660156 391.128906 C 405.535156 391.128906 493.222656 303.441406 493.222656 195.566406 C 493.222656 87.6875 405.535156 0 297.660156 0 Z M 407.554688 214.488281 L 316.582031 214.488281 L 316.582031 305.457031 C 316.582031 315.804688 308.128906 324.382812 297.660156 324.382812 C 287.1875 324.382812 278.734375 315.804688 278.734375 305.457031 L 278.734375 214.488281 L 187.761719 214.488281 C 177.417969 214.488281 168.835938 206.035156 168.835938 195.566406 C 168.835938 185.09375 177.417969 176.640625 187.761719 176.640625 L 278.734375 176.640625 L 278.734375 85.667969 C 278.734375 75.324219 287.1875 66.742188 297.660156 66.742188 C 308.128906 66.742188 316.582031 75.324219 316.582031 85.667969 L 316.582031 176.640625 L 407.554688 176.640625 C 417.898438 176.640625 426.480469 185.09375 426.480469 195.566406 C 426.480469 206.035156 417.898438 214.488281 407.554688 214.488281 Z M 407.554688 214.488281 " fill-opacity="1" fill-rule="nonzero"/></g></svg>