<svg xmlns="http://www.w3.org/2000/svg" xmlns:xlink="http://www.w3.org/1999/xlink" width="793" zoomAndPan="magnify" viewBox="0 0 595.5 419.249985" height="559" preserveAspectRatio="xMidYMid meet" version="1.0"><defs><clipPath id="db675f5566"><path d="M 160 56 L 436 56 L 436 338 L 160 338 Z M 160 56 " clip-rule="nonzero"/></clipPath><clipPath id="ef8342e8bc"><path d="M 243.828125 56.855469 L 435.265625 257.855469 L 351.4375 337.695312 L 160 136.691406 Z M 243.828125 56.855469 " clip-rule="nonzero"/></clipPath><clipPath id="0fa1d22ab4"><path d="M 243.828125 56.855469 L 435.265625 257.855469 L 351.4375 337.695312 L 160 136.691406 Z M 243.828125 56.855469 " clip-rule="nonzero"/></clipPath><clipPath id="1b5dca3c24"><path d="M 141 41 L 454 41 L 454 348 L 141 348 Z M 141 41 " clip-rule="nonzero"/></clipPath><clipPath id="d846b188fc"><path d="M 366.816406 41.917969 L 453.535156 132.96875 L 228.453125 347.335938 L 141.734375 256.285156 Z M 366.816406 41.917969 " clip-rule="nonzero"/></clipPath><clipPath id="13cc1a9358"><path d="M 366.816406 41.917969 L 453.535156 132.96875 L 228.453125 347.335938 L 141.734375 256.285156 Z M 366.816406 41.917969 " clip-rule="nonzero"/></clipPath><clipPath id="85822c2a09"><path d="M 102 14 L 494 14 L 494 406 L 102 406 Z M 102 14 " clip-rule="nonzero"/></clipPath><clipPath id="8025dc024c"><path d="M 297.636719 -66.976562 L 574.203125 209.59375 L 297.636719 486.164062 L 21.066406 209.59375 Z M 297.636719 -66.976562 " clip-rule="nonzero"/></clipPath><clipPath id="21f752c6dd"><path d="M 297.636719 -66.976562 L 574.203125 209.59375 L 297.636719 486.164062 L 21.066406 209.59375 Z M 297.636719 -66.976562 " clip-rule="nonzero"/></clipPath></defs><g clip-path="url(#db675f5566)"><g clip-path="url(#ef8342e8bc)"><g clip-path="url(#0fa1d22ab4)"><path fill="#ffffff" d="M 243.828125 56.855469 L 435.265625 257.855469 L 351.4375 337.695312 L 160 136.691406 Z M 243.828125 56.855469 " fill-opacity="1" fill-rule="nonzero"/></g></g></g><g clip-path="url(#1b5dca3c24)"><g clip-path="url(#d846b188fc)"><g clip-path="url(#13cc1a9358)"><path fill="#ffffff" d="M 366.816406 41.917969 L 453.535156 132.96875 L 228.453125 347.335938 L 141.734375 256.285156 Z M 366.816406 41.917969 " fill-opacity="1" fill-rule="nonzero"/></g></g></g><g clip-path="url(#85822c2a09)"><g clip-path="url(#8025dc024c)"><g clip-path="url(#21f752c6dd)"><path fill="#653db4" d="M 435.917969 71.308594 C 359.640625 -4.96875 235.628906 -4.96875 159.351562 71.308594 C 83.070312 147.589844 83.070312 271.601562 159.351562 347.878906 C 235.628906 424.160156 359.640625 424.160156 435.917969 347.878906 C 512.199219 271.601562 512.199219 147.589844 435.917969 71.308594 Z M 361.960938 300.683594 L 297.636719 236.359375 L 233.308594 300.683594 C 225.996094 308 213.949219 308.089844 206.546875 300.683594 C 199.140625 293.277344 199.230469 281.234375 206.546875 273.917969 L 270.871094 209.59375 L 206.546875 145.269531 C 199.230469 137.953125 199.140625 125.910156 206.546875 118.503906 C 213.949219 111.101562 225.992188 111.1875 233.308594 118.503906 L 297.636719 182.832031 L 361.960938 118.503906 C 369.277344 111.1875 381.320312 111.101562 388.726562 118.503906 C 396.128906 125.910156 396.039062 137.953125 388.726562 145.269531 L 324.398438 209.59375 L 388.726562 273.921875 C 396.039062 281.234375 396.128906 293.28125 388.726562 300.683594 C 381.320312 308.089844 369.277344 308 361.960938 300.683594 Z M 361.960938 300.683594 " fill-opacity="1" fill-rule="nonzero"/></g></g></g></svg>