<svg xmlns="http://www.w3.org/2000/svg" xmlns:xlink="http://www.w3.org/1999/xlink" width="793" zoomAndPan="magnify" viewBox="0 0 595.5 419.249985" height="559" preserveAspectRatio="xMidYMid meet" version="1.0"><defs><clipPath id="8dedb34902"><path d="M 158.847656 137.664062 L 436.425781 137.664062 L 436.425781 253.425781 L 158.847656 253.425781 Z M 158.847656 137.664062 " clip-rule="nonzero"/></clipPath><clipPath id="3b4eef3ed2"><path d="M 234.769531 54.148438 L 360.507812 54.148438 L 360.507812 364.980469 L 234.769531 364.980469 Z M 234.769531 54.148438 " clip-rule="nonzero"/></clipPath><clipPath id="75492d1045"><path d="M 102 0 L 494 0 L 494 392 L 102 392 Z M 102 0 " clip-rule="nonzero"/></clipPath><clipPath id="8d0b81a97b"><path d="M 297.636719 -80.996094 L 574.203125 195.574219 L 297.636719 472.144531 L 21.066406 195.574219 Z M 297.636719 -80.996094 " clip-rule="nonzero"/></clipPath><clipPath id="049e82385a"><path d="M 297.636719 -80.996094 L 574.203125 195.574219 L 297.636719 472.144531 L 21.066406 195.574219 Z M 297.636719 -80.996094 " clip-rule="nonzero"/></clipPath></defs><g clip-path="url(#8dedb34902)"><path fill="#ffffff" d="M 158.847656 137.664062 L 436.425781 137.664062 L 436.425781 253.425781 L 158.847656 253.425781 Z M 158.847656 137.664062 " fill-opacity="1" fill-rule="nonzero"/></g><g clip-path="url(#3b4eef3ed2)"><path fill="#ffffff" d="M 234.769531 54.148438 L 360.507812 54.148438 L 360.507812 364.980469 L 234.769531 364.980469 Z M 234.769531 54.148438 " fill-opacity="1" fill-rule="nonzero"/></g><g clip-path="url(#75492d1045)"><g clip-path="url(#8d0b81a97b)"><g clip-path="url(#049e82385a)"><path fill="#653db4" d="M 435.917969 57.289062 C 359.640625 -18.992188 235.628906 -18.992188 159.351562 57.289062 C 83.070312 133.570312 83.070312 257.578125 159.351562 333.859375 C 235.628906 410.140625 359.640625 410.140625 435.917969 333.859375 C 512.199219 257.578125 512.199219 133.570312 435.917969 57.289062 Z M 361.960938 286.664062 L 297.636719 222.339844 L 233.308594 286.664062 C 225.996094 293.980469 213.949219 294.070312 206.546875 286.664062 C 199.140625 279.257812 199.230469 267.214844 206.546875 259.898438 L 270.871094 195.574219 L 206.546875 131.25 C 199.230469 123.933594 199.140625 111.890625 206.546875 104.484375 C 213.949219 97.078125 225.992188 97.167969 233.308594 104.484375 L 297.636719 168.808594 L 361.960938 104.484375 C 369.277344 97.167969 381.320312 97.078125 388.726562 104.484375 C 396.128906 111.890625 396.039062 123.933594 388.726562 131.25 L 324.398438 195.574219 L 388.726562 259.898438 C 396.039062 267.214844 396.128906 279.257812 388.726562 286.664062 C 381.320312 294.070312 369.277344 293.980469 361.960938 286.664062 Z M 361.960938 286.664062 " fill-opacity="1" fill-rule="nonzero"/></g></g></g></svg>